<?xml version="1.0" encoding="utf-8"?>
<!-- Generator: Adobe Illustrator 22.0.0, SVG Export Plug-In . SVG Version: 6.00 Build 0)  -->
<svg version="1.1" id="Layer_1" xmlns="http://www.w3.org/2000/svg" xmlns:xlink="http://www.w3.org/1999/xlink" x="0px" y="0px"
	 viewBox="0 0 1069 172.8" style="enable-background:new 0 0 1069 172.8;" xml:space="preserve">
<style type="text/css">
	.st0{fill:#00B5F3;}
</style>
<g>
	<path class="st0" d="M63.4,41.3c-17.5,0-34.8,4.9-52.5,13.9l11.9,23.6c10-5.1,20.9-9,32.6-9c20.7,0,28.9,11.7,28.9,25v2.4
		c-10.7-4.1-21.9-6.3-32.1-6.3c-29.2,0-52.3,17-52.3,41.8c0,24.1,20.7,40.1,47.4,40.1c13.6,0,28-5.3,36.9-15.6v12.6h34.3V94.8
		C118.6,62,96.2,41.3,63.4,41.3z M84.3,130.3c-2.4,11.7-15.3,18-28.9,18c-12.2,0-21.1-6.3-21.1-16.5c0-10.2,10.2-17.7,23.1-17.7
		c9.7,0,19,1.7,27,4.6V130.3z"/>
	<polygon class="st0" points="246.2,69.3 246.2,44.2 138.5,44.2 138.5,74.4 200,74.4 136.8,144.9 136.8,169.9 246.7,169.9 
		246.7,139.8 183,139.8 	"/>
	<path class="st0" d="M321.8,41.3c-17.5,0-34.8,4.9-52.5,13.9l11.9,23.6c10-5.1,20.9-9,32.6-9c20.7,0,28.9,11.7,28.9,25v2.4
		c-10.7-4.1-21.9-6.3-32.1-6.3c-29.2,0-52.3,17-52.3,41.8c0,24.1,20.7,40.1,47.4,40.1c13.6,0,28-5.3,36.9-15.6v12.6H377V94.8
		C377,62,354.6,41.3,321.8,41.3z M342.7,130.3c-2.4,11.7-15.3,18-28.9,18c-12.2,0-21.1-6.3-21.1-16.5c0-10.2,10.2-17.7,23.1-17.7
		c9.7,0,19,1.7,27,4.6V130.3z"/>
	<path class="st0" d="M474,41.3c-17.5,0-32.1,7.5-42,20.4V0h-35.5v169.9h35.5v-17.7c10,13.1,24.5,20.7,42,20.7
		c33.5,0,57.8-27.2,57.8-65.9C531.8,68.5,507.5,41.3,474,41.3z M463.8,142.9c-17.3,0-29.9-12.6-31.8-31.1v-9.7
		c1.9-18.2,14.6-30.9,31.8-30.9c19.7,0,33.5,14.8,33.5,35.7C497.3,128.1,483.5,142.9,463.8,142.9z"/>
	<path class="st0" d="M605.5,41.3c-17.5,0-34.8,4.9-52.5,13.9l11.9,23.6c10-5.1,20.9-9,32.6-9c20.7,0,28.9,11.7,28.9,25v2.4
		c-10.7-4.1-21.9-6.3-32.1-6.3c-29.2,0-52.3,17-52.3,41.8c0,24.1,20.7,40.1,47.4,40.1c13.6,0,28-5.3,36.9-15.6v12.6h34.3V94.8
		C660.6,62,638.3,41.3,605.5,41.3z M626.4,130.3c-2.4,11.7-15.3,18-28.9,18c-12.2,0-21.1-6.3-21.1-16.5c0-10.2,10.2-17.7,23.1-17.7
		c9.7,0,19,1.7,27,4.6V130.3z"/>
	<path class="st0" d="M743.3,142.9c-18.7,0-34.3-16.5-34.3-36.2c0-19.2,15.6-35.5,34-35.5c9.7,0,19.7,4.6,26,11.7l23.6-20.2
		c-12.2-13.1-28.9-21.4-49.3-21.4c-37.2,0-68.8,29.9-68.8,65.6c0,35.7,31.4,65.9,68.5,65.9c20.9,0,37.9-8.5,50.3-22.1l-23.6-19.9
		C763.2,138.1,753,142.9,743.3,142.9z"/>
	<path class="st0" d="M881.3,41.3c-16,0-29.9,7.3-37.7,18.2V0h-35.5v169.9h35.5V95.5c0-13.6,11.4-24.3,26.2-24.3
		c14.1,0,23.8,10.7,23.8,26.3v72.4H928v-80C928,61.5,908.6,41.3,881.3,41.3z"/>
	<path class="st0" d="M1008.2,141.5c-14.8,0-25.8-9.2-29.9-22.8h90.7c0-47.4-23.1-77.3-62.5-77.3c-36.7,0-64.7,27.5-64.7,65.4
		c0,38.6,29.2,66.1,66.6,66.1c18.5,0,40.1-7.8,51.3-19.4l-22.6-23.1C1030.4,136.8,1018.2,141.5,1008.2,141.5z M1008,72.7
		c14.3,0,23.6,8,27,20.4h-56.1C983.4,80.5,994.6,72.7,1008,72.7z"/>
</g>
</svg>
